<svg width="25" height="25" viewBox="0 0 25 25" fill="none" xmlns="http://www.w3.org/2000/svg">
<g clip-path="url(#clip0_2_36)">
<path d="M1.17188 5.85938C1.17188 3.28125 3.28125 1.17188 5.85938 1.17188H19.1406C21.7188 1.17188 23.8281 3.28125 23.8281 5.85938V19.1406C23.8281 21.7188 21.7188 23.8281 19.1406 23.8281H5.85938C3.28125 23.8281 1.17188 21.7188 1.17188 19.1406V5.85938Z" fill="#57CEF3"/>
<path d="M8.20312 0.0390625C5.42969 0.117188 3.51562 0.351562 2.10938 1.60156C1.91406 1.75781 1.75781 1.91406 1.60156 2.07031C0.742187 3.00781 0.390625 4.17969 0.195312 5.66406C0 7.10938 0 8.94531 0 11.2891V13.7109C0 16.0547 0 17.8906 0.195312 19.3359C0.390625 20.8203 0.78125 21.9531 1.60156 22.9297C1.75781 23.0859 1.91406 23.2813 2.07031 23.3984C3.00781 24.2578 4.17969 24.6094 5.66406 24.8047C7.10938 25 8.94531 25 11.2891 25H13.6719C15.1953 25 16.4844 25 17.6172 24.9609L21.0938 23.8281L23.8281 21.0938V7.8125H23.4375C23.4375 12.5781 20.4297 16.7188 16.0156 18.8281C14.6484 19.7266 12.1875 20.3125 9.375 20.3125C5.35156 20.3125 2.03125 19.1016 1.60156 17.5391C1.5625 16.4453 1.5625 15.1953 1.5625 13.6719V11.3281C1.5625 8.90625 1.5625 7.1875 1.71875 5.85938C1.875 4.53125 2.1875 3.75 2.73438 3.125C2.89062 3.00781 3.00781 2.89062 3.125 2.77344C4.0625 1.95312 5.42969 1.67969 8.24219 1.60156L8.20312 0.0390625Z" fill="#2787F5"/>
<path d="M10.3125 13.1641C9.375 11.9922 8.24219 10.0391 7.69531 8.125C7.65625 7.96875 7.5 7.8125 7.30469 7.8125H5.27344C4.96094 7.8125 4.6875 8.08594 4.6875 8.39844C4.6875 9.375 7.61719 17.1875 12.5 17.1875H13.6719C13.9062 17.1875 14.0625 17.0312 14.0625 16.7969V14.8438C14.0625 14.5703 14.2969 14.4141 14.5312 14.4922C15.5469 14.9219 16.4844 15.7812 17.1484 16.7969C17.3047 17.0312 17.5391 17.1875 17.8516 17.1875H19.7266C20.0391 17.1875 20.3125 16.9141 20.3125 16.6016C20.3125 15.8984 18.75 14.1016 17.6953 13.1641C17.5391 13.0078 17.5 12.7344 17.6562 12.5781C18.6719 11.4063 20.2734 9.10156 20.2734 8.39844C20.2734 8.08594 20 7.8125 19.6875 7.8125H17.5C17.3047 7.8125 17.1094 7.96875 17.0703 8.16406C16.8359 9.21875 15.8594 11.0937 14.5703 12.2266C14.3359 12.4219 13.9844 12.2656 13.9844 11.9531V8.20312C13.9844 7.96875 13.8281 7.8125 13.5938 7.8125H10.4687C10.2344 7.8125 10.0781 7.96875 10.0781 8.20312C10.0781 8.32031 10.1172 8.4375 10.2344 8.51562C10.625 8.82812 10.8594 9.25781 10.8594 9.76562V12.9297C10.9375 13.2812 10.5469 13.4375 10.3125 13.1641Z" fill="white"/>
<path d="M18.6719 17.1875H19.7266C20.0391 17.1875 20.3125 16.9141 20.3125 16.6016C20.3125 16.4453 20.2344 16.2109 20.0781 15.9375C19.6484 16.3672 19.1797 16.7969 18.6719 17.1875Z" fill="#ACBDC5"/>
<path fill-rule="evenodd" clip-rule="evenodd" d="M19.1406 1.71875C17.8125 1.5625 16.0938 1.5625 13.6719 1.5625H11.3281C10 1.5625 8.86719 1.5625 7.89063 1.60156L7.85156 0.0390625C8.86719 0 10 0 11.3281 0H13.7109C16.0547 0 17.8906 0 19.3359 0.195312C20.8203 0.390625 21.9531 0.78125 22.9297 1.60156C23.0859 1.75781 23.2813 1.91406 23.3984 2.07031C24.2578 3.00781 24.6094 4.17969 24.8047 5.66406C25 7.10938 25 8.94531 25 11.2891V13.7109C25 16.0547 25 17.8906 24.8047 19.3359C24.6094 20.8203 24.2188 21.9531 23.3984 22.9297C23.2422 23.0859 23.0859 23.2812 22.9297 23.3984C21.6016 24.6094 19.8047 24.8828 17.2656 24.9609L17.2266 23.3984C19.7656 23.3203 21.0156 23.0078 21.9141 22.2266C22.0312 22.1094 22.1484 21.9922 22.2656 21.875C22.8125 21.25 23.125 20.4688 23.2812 19.1406C23.4375 17.8125 23.4375 16.0938 23.4375 13.6719V11.3281C23.4375 8.90625 23.4375 7.1875 23.2812 5.85938C23.125 4.53125 22.8125 3.75 22.2656 3.125C22.1484 3.00781 22.0312 2.89062 21.9141 2.77344C21.25 2.22656 20.4688 1.91406 19.1406 1.71875Z" fill="#314A52"/>
</g>
<defs>
<clipPath id="clip0_2_36">
<rect width="25" height="25" fill="white"/>
</clipPath>
</defs>
</svg>
