<svg width="229" height="60" viewBox="0 0 229 60" fill="none" xmlns="http://www.w3.org/2000/svg">
<path d="M196.04 44.232C192.936 41.128 190.584 38.472 188.984 36.264L186.728 32.808C185.672 31.24 184.84 30.072 184.232 29.304C182.344 31 180.472 32.568 178.616 34.008C178.744 36.952 178.904 39.8 179.096 42.552C179.128 43.224 178.92 43.816 178.472 44.328C178.056 44.808 177.512 45.064 176.84 45.096C176.2 45.16 175.624 44.984 175.112 44.568C174.632 44.12 174.36 43.576 174.296 42.936C174.104 40.184 173.96 37.336 173.864 34.392C173.352 33.592 173.32 32.776 173.768 31.944C173.672 28.296 173.624 21.912 173.624 12.792C173.624 12.12 173.848 11.56 174.296 11.112C174.776 10.632 175.352 10.392 176.024 10.392C176.696 10.392 177.256 10.632 177.704 11.112C178.184 11.56 178.424 12.12 178.424 12.792C178.424 20.312 178.44 25.352 178.472 27.912C180.232 26.44 182.12 24.712 184.136 22.728L188.84 17.928L194.264 12.168C194.744 11.688 195.304 11.432 195.944 11.4C196.616 11.368 197.192 11.592 197.672 12.072C198.152 12.52 198.408 13.08 198.44 13.752C198.472 14.392 198.264 14.952 197.816 15.432C193.176 20.392 189.8 23.912 187.688 25.992C188.488 26.952 189.496 28.376 190.712 30.264C191.96 32.12 192.696 33.192 192.92 33.48C194.328 35.464 196.488 37.928 199.4 40.872C199.88 41.32 200.12 41.88 200.12 42.552C200.12 43.224 199.88 43.8 199.4 44.28C198.952 44.728 198.392 44.952 197.72 44.952C197.048 44.952 196.488 44.712 196.04 44.232ZM211.809 44.904C210.209 45.128 208.673 44.904 207.201 44.232C205.761 43.528 204.497 42.376 203.409 40.776C202.545 39.496 202.017 38.328 201.825 37.272C201.633 36.184 201.569 34.856 201.633 33.288C201.761 30.056 202.545 27.288 203.985 24.984C205.457 22.648 207.393 21.048 209.793 20.184C212.161 19.288 214.657 19.24 217.281 20.04C219.873 20.84 222.257 22.392 224.433 24.696C224.913 25.208 225.137 25.8 225.105 26.472C225.073 27.144 224.817 27.72 224.337 28.2C224.081 28.456 223.761 28.648 223.377 28.776C223.409 29.064 223.425 29.416 223.425 29.832C223.425 30.088 223.409 30.344 223.377 30.6C223.377 30.824 223.377 30.952 223.377 30.984V31.416C223.409 31.896 223.441 32.456 223.473 33.096C223.537 33.704 223.569 34.152 223.569 34.44C223.601 34.728 223.633 35.048 223.665 35.4C223.729 35.752 223.777 36.04 223.809 36.264C223.873 36.488 223.937 36.712 224.001 36.936C224.289 37.896 225.313 39.24 227.073 40.968C227.521 41.48 227.745 42.072 227.745 42.744C227.745 43.416 227.489 43.992 226.977 44.472C226.497 44.952 225.921 45.192 225.249 45.192C224.577 45.192 223.985 44.952 223.473 44.472C221.521 42.456 220.241 40.728 219.633 39.288C219.505 39.544 219.361 39.768 219.201 39.96C218.305 41.272 217.217 42.376 215.937 43.272C214.657 44.168 213.281 44.712 211.809 44.904ZM211.137 40.008C212.641 39.816 213.969 38.872 215.121 37.176C216.273 35.448 217.169 33.064 217.809 30.024V29.832C217.809 29.704 217.809 29.528 217.809 29.304C217.841 29.08 217.857 28.856 217.857 28.632C217.889 28.024 217.953 27.56 218.049 27.24C218.145 26.92 218.305 26.616 218.529 26.328C218.561 26.264 218.593 26.216 218.625 26.184C216.129 24.456 213.745 24.008 211.473 24.84C210.161 25.32 209.041 26.296 208.113 27.768C207.185 29.208 206.673 31.112 206.577 33.48C206.545 34.696 206.577 35.576 206.673 36.12C206.769 36.664 207.073 37.304 207.585 38.04C208.577 39.544 209.761 40.2 211.137 40.008Z" fill="#F1BB55"/>
<path d="M3.25044 15.288C2.86644 14.936 2.67444 14.504 2.67444 13.992C2.67444 13.416 2.86644 12.888 3.25044 12.408C3.66644 11.896 4.11444 11.64 4.59444 11.64C5.04244 11.64 5.47444 11.896 5.89044 12.408C6.62644 12.76 6.99444 13.288 6.99444 13.992C7.44244 14.28 7.82644 14.712 8.14644 15.288C8.46644 15.832 8.62644 16.376 8.62644 16.92C9.10644 17.272 9.37844 17.736 9.44244 18.312C9.85844 18.536 10.1304 18.824 10.2584 19.176C10.3864 19.528 10.4344 19.976 10.4024 20.52C10.5624 20.648 10.6904 20.872 10.7864 21.192C10.9144 21.48 10.9944 21.768 11.0264 22.056C11.4104 22.216 11.7304 22.456 11.9864 22.776C12.2424 23.096 12.4024 23.464 12.4664 23.88C12.6904 24.04 12.8824 24.312 13.0424 24.696C13.2024 25.048 13.2824 25.352 13.2824 25.608C13.9544 26.024 14.2584 26.584 14.1944 27.288C14.4504 27.48 14.6744 27.8 14.8664 28.248C15.0904 28.664 15.2024 29.064 15.2024 29.448C15.2024 29.576 15.1704 29.736 15.1064 29.928C15.3944 30.216 15.6664 30.616 15.9224 31.128C16.2104 31.64 16.3704 32.104 16.4024 32.52C16.4344 32.296 16.4824 32.152 16.5464 32.088C16.6104 32.024 16.7064 31.976 16.8344 31.944C16.7384 31.272 16.9624 30.712 17.5064 30.264C17.4744 29.944 17.5384 29.624 17.6984 29.304C17.8584 28.984 18.0984 28.744 18.4184 28.584C18.2904 28.36 18.2264 28.088 18.2264 27.768C18.2264 27.16 18.4664 26.696 18.9464 26.376C18.9144 25.8 19.0424 25.272 19.3304 24.792C19.6184 24.312 19.9544 23.96 20.3384 23.736C20.2744 23.48 20.2424 23.304 20.2424 23.208C20.2424 22.568 20.5144 22.072 21.0584 21.72C21.0904 21.048 21.3144 20.616 21.7304 20.424C21.6984 19.592 21.8584 18.712 22.2104 17.784C22.5944 16.824 23.0264 16.264 23.5064 16.104C23.7624 15.368 23.9704 14.92 24.1304 14.76C24.0664 14.216 24.1624 13.56 24.4184 12.792C24.6744 11.992 25.1384 11.4 25.8104 11.016C26.1624 10.824 26.4664 10.728 26.7224 10.728C27.2344 10.728 27.6344 10.968 27.9224 11.448C28.2424 11.896 28.4024 12.424 28.4024 13.032C28.4024 13.736 28.1784 14.312 27.7304 14.76C27.7624 14.888 27.7784 15.048 27.7784 15.24C27.7784 15.912 27.5064 16.44 26.9624 16.824C26.9944 16.92 27.0104 17.08 27.0104 17.304C27.0104 17.752 26.8984 18.152 26.6744 18.504C26.4504 18.856 26.1144 19.08 25.6664 19.176C25.7304 19.496 25.7624 19.768 25.7624 19.992C25.7624 20.472 25.6664 20.952 25.4744 21.432C25.2824 21.88 25.0104 22.264 24.6584 22.584V22.824C24.6584 23.336 24.4664 23.768 24.0824 24.12C24.2104 25.176 23.7304 26.04 22.6424 26.712C22.7384 26.936 22.7864 27.16 22.7864 27.384C22.7864 27.896 22.6264 28.312 22.3064 28.632C22.4024 29.048 22.3064 29.528 22.0184 30.072C21.7624 30.616 21.4424 31 21.0584 31.224C21.0584 31.736 20.8664 32.168 20.4824 32.52C20.5464 32.712 20.5784 32.872 20.5784 33C20.5784 33.448 20.4184 33.912 20.0984 34.392C19.7784 34.84 19.4264 35.112 19.0424 35.208C19.1384 35.592 19.0104 36.152 18.6584 36.888C18.3384 37.592 17.8904 38.088 17.3144 38.376C17.0904 38.792 16.7864 39.128 16.4024 39.384C16.2424 39.832 15.9544 40.248 15.5384 40.632C15.1544 41.016 14.6904 41.32 14.1464 41.544C13.8584 42.088 13.2504 42.552 12.3224 42.936C12.2264 43.32 12.0344 43.64 11.7464 43.896C11.4584 44.12 11.1224 44.232 10.7384 44.232C10.5144 44.232 10.2584 44.184 9.97044 44.088C9.77844 44.216 9.52244 44.328 9.20244 44.424C8.88244 44.52 8.56244 44.568 8.24244 44.568C8.01844 44.568 7.77844 44.536 7.52244 44.472C7.23444 44.728 6.88244 44.856 6.46644 44.856C5.95444 44.856 5.50644 44.648 5.12244 44.232C4.73844 43.784 4.54644 43.304 4.54644 42.792C4.54644 42.088 4.88244 41.608 5.55444 41.352C5.68244 41.128 5.89044 40.952 6.17844 40.824C6.46644 40.696 6.75444 40.632 7.04244 40.632C7.36244 40.632 7.68244 40.712 8.00244 40.872C8.09844 40.68 8.35444 40.504 8.77044 40.344C9.21844 40.184 9.53844 40.152 9.73044 40.248C10.3384 39.64 10.8664 39.272 11.3144 39.144C11.7304 38.504 12.3224 38.056 13.0904 37.8C13.1544 37.448 13.3464 37.08 13.6664 36.696C14.0184 36.312 14.3384 36.072 14.6264 35.976C14.2104 35.72 13.8264 35.352 13.4744 34.872C13.1544 34.36 12.9784 33.88 12.9464 33.432C12.5624 33.112 12.2104 32.68 11.8904 32.136C11.5704 31.592 11.4104 31.08 11.4104 30.6C11.4104 30.44 11.4264 30.312 11.4584 30.216C11.0744 30.12 10.7544 29.928 10.4984 29.64C10.2424 29.32 10.1304 28.968 10.1624 28.584C9.90644 28.456 9.69844 28.264 9.53844 28.008C9.41044 27.72 9.34644 27.432 9.34644 27.144C9.34644 27.048 9.37844 26.872 9.44244 26.616C9.25044 26.424 9.04244 26.104 8.81844 25.656C8.59444 25.176 8.48244 24.824 8.48244 24.6C8.09844 24.472 7.79444 24.248 7.57044 23.928C7.34644 23.608 7.25044 23.224 7.28244 22.776C6.99444 22.52 6.78644 22.04 6.65844 21.336C6.24244 21.208 5.93844 20.968 5.74644 20.616C5.55444 20.232 5.49044 19.816 5.55444 19.368C5.04244 18.888 4.81844 18.184 4.88244 17.256C4.43444 17.192 4.03444 17 3.68244 16.68C3.36244 16.328 3.21844 15.864 3.25044 15.288ZM34.3837 43.464C33.6157 43.464 33.1197 43.256 32.8957 42.84C32.3197 42.552 31.9837 42.056 31.8877 41.352C31.5357 40.968 31.3597 40.536 31.3597 40.056C31.3597 39.512 31.5837 39.048 32.0317 38.664C32.5117 38.28 33.0237 38.088 33.5677 38.088C33.9517 38.088 34.3037 38.216 34.6237 38.472C34.9437 38.696 35.1677 39.048 35.2957 39.528C35.9677 39.688 36.4157 39.848 36.6397 40.008C36.7997 39.912 37.0237 39.864 37.3117 39.864C37.5997 39.864 37.8717 39.912 38.1277 40.008C38.4157 40.104 38.6237 40.232 38.7517 40.392C39.0077 40.328 39.1837 40.296 39.2797 40.296C39.6957 40.296 40.0957 40.44 40.4797 40.728C40.6717 40.472 40.9597 40.264 41.3437 40.104C41.7277 39.944 42.0797 39.864 42.3997 39.864C42.5597 39.544 42.7997 39.304 43.1197 39.144C43.4397 38.952 43.7757 38.872 44.1277 38.904C44.3837 38.488 44.7197 38.232 45.1357 38.136C45.1037 38.04 45.0877 37.896 45.0877 37.704C45.0877 37.32 45.1837 36.968 45.3757 36.648C45.5677 36.296 45.8397 36.024 46.1917 35.832V35.304C45.5517 35.08 45.0397 34.744 44.6557 34.296C43.8557 34.136 43.2957 33.976 42.9757 33.816C42.7517 33.912 42.5117 33.96 42.2557 33.96C41.7437 33.96 41.2797 33.768 40.8637 33.384C40.7677 33.416 40.6237 33.432 40.4317 33.432C39.9197 33.432 39.4397 33.24 38.9917 32.856C38.7677 32.952 38.5117 32.968 38.2237 32.904C37.8397 33.064 37.5357 33.144 37.3117 33.144C36.7677 33.144 36.2877 32.936 35.8717 32.52C35.4877 32.072 35.2957 31.576 35.2957 31.032C35.2957 30.456 35.5517 29.976 36.0637 29.592C36.5117 29.016 37.0557 28.728 37.6957 28.728C38.0157 28.728 38.2877 28.808 38.5117 28.968C38.7677 28.808 39.1357 28.728 39.6157 28.728C39.9357 28.728 40.2237 28.792 40.4797 28.92C40.7357 29.016 40.9277 29.16 41.0557 29.352C41.2157 29.064 41.5837 28.92 42.1597 28.92C42.4477 28.92 42.7357 28.968 43.0237 29.064C43.3757 28.584 43.8557 28.312 44.4637 28.248C44.5277 28.056 44.5917 27.88 44.6557 27.72C44.5917 27.464 44.4957 27.128 44.3677 26.712C44.2717 26.296 44.2077 25.96 44.1757 25.704C43.8557 25.384 43.6477 25.112 43.5517 24.888C42.8797 24.792 42.3997 24.44 42.1117 23.832L41.7757 23.88C41.3277 23.88 40.9117 23.72 40.5277 23.4C40.1117 23.688 39.5677 23.832 38.8957 23.832C38.4477 23.832 38.0637 23.752 37.7437 23.592C37.6797 24.072 37.5037 24.52 37.2157 24.936C36.9277 25.352 36.4957 25.656 35.9197 25.848C35.7917 26.36 35.5517 26.744 35.1997 27C34.8797 27.224 34.4957 27.336 34.0477 27.336C33.5037 27.336 33.0077 27.16 32.5597 26.808C32.1437 26.456 31.9357 26.008 31.9357 25.464C31.9357 25.144 31.9997 24.856 32.1277 24.6C32.0957 24.088 32.2237 23.624 32.5117 23.208C32.7997 22.792 33.1837 22.52 33.6637 22.392C33.8877 21.72 34.4157 21.064 35.2477 20.424C36.0797 19.752 36.8637 19.416 37.5997 19.416C37.7277 19.416 37.9197 19.448 38.1757 19.512C38.5917 19.256 39.1997 19.128 39.9997 19.128C40.8957 19.128 41.5517 19.256 41.9677 19.512C42.3517 19.352 42.6717 19.272 42.9277 19.272C43.5357 19.272 44.0637 19.496 44.5117 19.944C44.9917 20.36 45.1997 20.808 45.1357 21.288C45.6157 21.352 46.0637 21.512 46.4797 21.768C46.9277 21.992 47.2317 22.36 47.3917 22.872C47.9677 23.416 48.2557 23.96 48.2557 24.504C48.2557 24.76 48.2077 25.032 48.1117 25.32C48.4317 25.48 48.6877 25.768 48.8797 26.184C49.1037 26.568 49.2157 27.016 49.2157 27.528C49.2157 28.36 48.8797 29.016 48.2077 29.496C48.2397 29.816 48.1917 30.136 48.0637 30.456C47.9357 30.776 47.7277 31.048 47.4397 31.272L47.6317 31.656C48.3677 31.88 48.9757 32.424 49.4557 33.288C49.9357 34.12 50.1757 35 50.1757 35.928C50.1757 36.92 49.9037 37.688 49.3597 38.232C49.3917 38.328 49.4077 38.488 49.4077 38.712C49.4077 39.416 49.1197 39.992 48.5437 40.44C48.5437 40.888 48.3997 41.272 48.1117 41.592C47.8557 41.912 47.4877 42.088 47.0077 42.12C46.8477 42.44 46.5917 42.696 46.2397 42.888C45.8877 43.08 45.5197 43.16 45.1357 43.128C44.7197 43.64 44.2077 43.88 43.5997 43.848C43.5357 44.04 43.3757 44.2 43.1197 44.328C42.8637 44.424 42.6397 44.44 42.4477 44.376C41.9357 44.632 41.3117 44.76 40.5757 44.76C39.8717 44.76 39.3277 44.616 38.9437 44.328C38.7837 44.392 38.5597 44.424 38.2717 44.424C37.6957 44.424 37.2477 44.264 36.9277 43.944C36.5437 44.04 36.2237 44.088 35.9677 44.088C35.3917 44.088 34.8637 43.88 34.3837 43.464ZM55.7639 39.816C55.5079 39.464 55.3799 39.032 55.3799 38.52C55.3799 38.04 55.4919 37.64 55.7159 37.32C55.5559 36.776 55.4759 36.344 55.4759 36.024C55.4759 35.544 55.6039 35.128 55.8599 34.776C55.6999 34.296 55.6199 33.816 55.6199 33.336C55.6199 32.728 55.7159 32.216 55.9079 31.8C55.7479 31.544 55.6679 31.176 55.6679 30.696C55.6679 29.928 55.8119 29.352 56.0999 28.968C55.9719 28.52 55.9079 28.072 55.9079 27.624C55.9079 27.4 55.9239 27.24 55.9559 27.144C55.6039 26.792 55.4279 26.376 55.4279 25.896C55.4279 25.416 55.5879 25.016 55.9079 24.696C55.6519 24.344 55.5239 23.992 55.5239 23.64C55.5239 23.384 55.6199 23.032 55.8119 22.584C55.6519 22.264 55.5719 21.976 55.5719 21.72C55.5719 21.08 55.8439 20.584 56.3879 20.232C56.7079 19.528 57.2199 19.176 57.9239 19.176C58.4039 19.176 58.8199 19.336 59.1719 19.656C59.5559 19.976 59.7479 20.376 59.7479 20.856C59.7479 21.176 59.6679 21.464 59.5079 21.72C59.6359 21.976 59.6999 22.264 59.6999 22.584C59.6999 23.064 59.5559 23.448 59.2679 23.736C59.3319 23.992 59.4119 24.264 59.5079 24.552C59.6359 24.84 59.6999 25.08 59.6999 25.272C59.6999 25.592 59.5719 25.896 59.3159 26.184C59.4439 26.568 59.5079 27.064 59.5079 27.672C59.5079 28.152 59.4439 28.52 59.3159 28.776C59.4439 28.648 59.6679 28.584 59.9879 28.584C60.5639 28.584 61.1079 28.744 61.6199 29.064C61.8759 28.872 62.1479 28.776 62.4359 28.776C62.6599 28.776 62.8839 28.824 63.1079 28.92C63.3639 28.696 63.6839 28.584 64.0679 28.584C64.3559 28.584 64.6119 28.648 64.8359 28.776C65.1559 28.616 65.4599 28.536 65.7479 28.536C66.2279 28.536 66.6119 28.68 66.8999 28.968C67.2839 28.84 67.9879 28.776 69.0119 28.776C69.6839 28.776 70.1479 28.808 70.4039 28.872C70.5319 28.744 70.6599 28.664 70.7879 28.632C70.4999 27.768 70.3559 26.664 70.3559 25.32C70.3559 24.168 70.4519 23.448 70.6439 23.16C70.4199 22.584 70.3079 21.928 70.3079 21.192C70.3079 20.456 70.4199 19.816 70.6439 19.272C70.8999 18.696 71.2839 18.344 71.7959 18.216C72.1159 18.152 72.3399 18.12 72.4679 18.12C73.4919 18.12 74.0039 18.888 74.0039 20.424C74.0039 21.032 73.9559 21.528 73.8599 21.912C74.1479 22.136 74.2919 22.52 74.2919 23.064C74.2919 23.64 74.1319 24.04 73.8119 24.264C73.9079 24.648 73.9559 25.016 73.9559 25.368C73.9559 25.72 73.9079 26.088 73.8119 26.472C74.2599 27.272 74.4839 28.168 74.4839 29.16C74.4839 29.832 74.3559 30.552 74.0999 31.32C74.4519 31.832 74.6279 32.408 74.6279 33.048C74.6279 33.528 74.5319 33.96 74.3399 34.344C74.4999 34.728 74.5799 35.096 74.5799 35.448C74.5799 35.864 74.4999 36.28 74.3399 36.696C74.2119 37.08 74.0199 37.4 73.7639 37.656C74.0519 37.976 74.1959 38.472 74.1959 39.144C74.1959 39.688 74.0999 40.2 73.9079 40.68C74.1959 40.968 74.3399 41.368 74.3399 41.88C74.3399 42.328 74.2119 42.776 73.9559 43.224C73.9239 43.736 73.7319 44.152 73.3799 44.472C73.0279 44.76 72.6279 44.904 72.1799 44.904C71.7959 44.904 71.4439 44.792 71.1239 44.568C70.8359 44.344 70.6279 44.024 70.4999 43.608C70.4359 43.096 70.4039 42.744 70.4039 42.552C70.4039 42.168 70.4519 41.784 70.5479 41.4C70.4839 41.08 70.4519 40.824 70.4519 40.632C70.4519 40.28 70.5319 39.832 70.6919 39.288C70.4999 39.032 70.4039 38.52 70.4039 37.752C70.4039 36.92 70.5319 36.36 70.7879 36.072C70.6919 35.688 70.6439 35.208 70.6439 34.632C70.6439 33.832 70.7399 33.272 70.9319 32.952C70.6759 32.792 70.4999 32.6 70.4039 32.376C69.7319 32.408 69.0759 32.296 68.4359 32.04C67.9559 32.424 67.3639 32.616 66.6599 32.616C66.2119 32.616 65.8119 32.488 65.4599 32.232C65.2679 32.296 65.0919 32.328 64.9319 32.328C64.8359 32.328 64.6279 32.296 64.3079 32.232C63.9879 32.488 63.6359 32.616 63.2519 32.616C62.9959 32.616 62.7719 32.568 62.5799 32.472C62.1639 32.728 61.7959 32.856 61.4759 32.856C61.2199 32.856 60.9799 32.808 60.7559 32.712C60.5319 32.584 60.3559 32.424 60.2279 32.232C59.9719 32.424 59.6519 32.552 59.2679 32.616C59.4599 33 59.5559 33.464 59.5559 34.008C59.5559 34.808 59.3639 35.496 58.9799 36.072C59.0439 36.232 59.1399 36.472 59.2679 36.792C59.3959 37.112 59.4599 37.4 59.4599 37.656C59.4599 38.072 59.3159 38.424 59.0279 38.712C59.0599 38.84 59.1239 39.064 59.2199 39.384C59.3479 39.672 59.4119 39.928 59.4119 40.152C59.4119 40.504 59.2519 40.856 58.9319 41.208C58.9639 41.304 58.9799 41.448 58.9799 41.64C58.9799 42.12 58.8039 42.536 58.4519 42.888C58.0999 43.24 57.6839 43.416 57.2039 43.416C56.9799 43.416 56.7399 43.368 56.4839 43.272C56.1639 43.08 55.9079 42.776 55.7159 42.36C55.5239 41.944 55.4279 41.512 55.4279 41.064C55.4279 40.552 55.5399 40.136 55.7639 39.816ZM79.4291 26.376C79.1731 25.96 79.0451 25.56 79.0451 25.176C79.0451 24.6 79.2371 24.12 79.6211 23.736C79.7171 23.256 79.9411 22.808 80.2931 22.392C80.6451 21.944 81.0291 21.608 81.4451 21.384C81.8931 21.128 82.2451 21.032 82.5011 21.096C82.7251 20.744 83.1731 20.424 83.8451 20.136C84.5171 19.816 85.1411 19.656 85.7171 19.656C85.8451 19.656 86.0371 19.688 86.2931 19.752C86.6451 19.368 87.1091 19.176 87.6851 19.176C88.1331 19.176 88.4531 19.304 88.6451 19.56C89.0611 19.272 89.6051 19.128 90.2771 19.128C91.0771 19.128 91.7811 19.32 92.3891 19.704C93.0291 20.088 93.3971 20.6 93.4931 21.24C94.0691 21.432 94.5011 21.736 94.7891 22.152C95.1091 22.536 95.3011 23.08 95.3651 23.784C95.7811 24.2 96.0851 24.696 96.2771 25.272C96.4691 25.816 96.5651 26.376 96.5651 26.952C96.5651 27.688 96.4371 28.28 96.1811 28.728C96.4051 29.048 96.5971 29.528 96.7571 30.168C96.9171 30.808 96.9971 31.432 96.9971 32.04C96.9971 32.296 96.9651 32.616 96.9011 33C97.1251 33.48 97.2371 33.8 97.2371 33.96C97.2371 34.056 97.1891 34.28 97.0931 34.632C97.1251 34.76 97.1571 34.92 97.1891 35.112C97.2211 35.272 97.2371 35.48 97.2371 35.736C97.2371 36.216 97.0611 36.648 96.7091 37.032C96.8371 37.384 96.9011 37.816 96.9011 38.328C96.9011 39 96.7411 39.544 96.4211 39.96C96.4851 40.088 96.5171 40.296 96.5171 40.584C96.5171 41.256 96.2451 41.816 95.7011 42.264C95.5731 42.712 95.3331 43.064 94.9811 43.32C94.6291 43.544 94.2451 43.656 93.8291 43.656C93.4131 43.656 93.0771 43.528 92.8211 43.272C91.9891 43.624 91.3171 43.8 90.8051 43.8C90.5491 43.8 90.3571 43.784 90.2291 43.752C89.3971 44.008 88.6931 44.136 88.1171 44.136C87.7011 44.136 87.1251 44.056 86.3891 43.896C85.9411 44.152 85.5091 44.28 85.0931 44.28C84.7091 44.28 84.3571 44.168 84.0371 43.944C83.8771 43.976 83.6371 43.992 83.3171 43.992C82.0691 43.992 81.1091 43.432 80.4371 42.312C79.2211 41.608 78.6131 40.552 78.6131 39.144C78.6131 38.792 78.6291 38.52 78.6611 38.328C78.3731 38.136 78.2291 37.736 78.2291 37.128C78.2291 36.712 78.3091 36.344 78.4691 36.024C78.3411 35.448 78.2771 35.08 78.2771 34.92C78.2771 33.992 78.7251 33.16 79.6211 32.424C79.9731 31.688 80.3731 31.192 80.8211 30.936C81.3011 30.68 81.8931 30.488 82.5971 30.36C82.7891 29.816 83.2371 29.448 83.9411 29.256C84.6451 29.064 85.3331 29 86.0051 29.064C86.1971 28.936 86.4691 28.824 86.8211 28.728C87.1731 28.6 87.5251 28.536 87.8771 28.536C88.2611 28.536 88.5971 28.6 88.8851 28.728C88.9491 28.664 89.1091 28.632 89.3651 28.632C89.5571 28.632 89.7491 28.648 89.9411 28.68C90.1331 28.712 90.2611 28.76 90.3251 28.824C90.7731 28.248 91.3011 27.96 91.9091 27.96C92.1011 27.96 92.2931 28.008 92.4851 28.104V27.96C92.4851 27.416 92.5971 27.032 92.8211 26.808C92.5011 26.712 92.1491 26.44 91.7651 25.992C91.4131 25.512 91.2051 25.08 91.1411 24.696C90.6291 24.472 90.2771 24.104 90.0851 23.592C89.7011 23.88 89.2531 24.024 88.7411 24.024C88.3891 24.024 88.0531 23.928 87.7331 23.736C87.1891 23.896 86.8371 23.96 86.6771 23.928C86.2291 24.248 85.7331 24.408 85.1891 24.408C84.7091 25.048 84.1491 25.336 83.5091 25.272C83.2211 25.784 82.8211 26.232 82.3091 26.616C81.8291 27 81.3331 27.192 80.8211 27.192C80.2451 27.192 79.7811 26.92 79.4291 26.376ZM82.0691 37.08C82.4531 37.464 82.6451 37.832 82.6451 38.184C82.6451 38.44 82.5811 38.76 82.4531 39.144C82.5811 39.144 82.7571 39.224 82.9811 39.384C83.2371 39.512 83.3811 39.656 83.4131 39.816C83.6691 39.72 83.9891 39.672 84.3731 39.672C85.0771 39.672 85.5411 39.832 85.7651 40.152C86.1171 40.024 86.4851 39.96 86.8691 39.96C87.4771 39.96 87.9571 40.136 88.3091 40.488C88.5651 40.232 88.9811 40.024 89.5571 39.864C90.1651 39.704 90.7091 39.624 91.1891 39.624C91.4771 39.048 91.9891 38.712 92.7251 38.616C92.7891 38.392 92.9651 38.104 93.2531 37.752C93.1251 37.56 93.0131 37.304 92.9171 36.984C92.8211 36.664 92.7731 36.344 92.7731 36.024C92.7731 35.352 92.9331 34.856 93.2531 34.536C92.9011 34.088 92.7251 33.56 92.7251 32.952C92.7251 32.536 92.7891 32.184 92.9171 31.896C92.6611 32.056 92.3731 32.136 92.0531 32.136C91.7651 32.136 91.5251 32.024 91.3331 31.8C91.0451 32.088 90.6451 32.232 90.1331 32.232C89.8131 32.232 89.4931 32.152 89.1731 31.992C88.8211 32.344 88.3891 32.52 87.8771 32.52C87.7171 32.52 87.4771 32.456 87.1571 32.328C86.6771 32.808 86.2451 32.952 85.8611 32.76C85.6691 33.208 85.4131 33.512 85.0931 33.672C84.8051 33.832 84.3891 33.912 83.8451 33.912C83.7171 34.264 83.4931 34.552 83.1731 34.776C82.8851 35 82.5811 35.08 82.2611 35.016C82.4211 35.24 82.5011 35.496 82.5011 35.784C82.5011 36.264 82.3571 36.696 82.0691 37.08ZM102.174 39.624C101.886 39.432 101.742 39.064 101.742 38.52C101.742 38.232 101.79 37.96 101.886 37.704C101.982 37.448 102.11 37.256 102.27 37.128C102.078 36.904 101.982 36.552 101.982 36.072C101.982 35.624 102.078 35.16 102.27 34.68C102.462 34.2 102.638 33.88 102.798 33.72C102.67 33.688 102.558 33.592 102.462 33.432C102.366 33.272 102.318 33.064 102.318 32.808C102.318 32.616 102.382 32.328 102.51 31.944C102.158 31.56 101.982 30.984 101.982 30.216C101.982 29.448 102.142 28.776 102.462 28.2C102.174 27.624 102.03 27.08 102.03 26.568C102.03 26.056 102.19 25.624 102.51 25.272C102.382 25.208 102.27 25.032 102.174 24.744C102.078 24.424 102.03 24.104 102.03 23.784C102.03 23.08 102.254 22.616 102.702 22.392C102.926 21.56 103.486 21.144 104.382 21.144C104.766 21.144 105.198 21.24 105.678 21.432C105.998 21.144 106.35 20.936 106.734 20.808C107.15 20.648 107.534 20.6 107.886 20.664C108.238 20.312 108.75 20.136 109.422 20.136C109.87 20.136 110.254 20.264 110.574 20.52C110.83 20.456 111.166 20.424 111.582 20.424C111.966 20.424 112.302 20.504 112.59 20.664C112.878 20.824 113.23 21.112 113.646 21.528C113.742 21.496 113.87 21.48 114.03 21.48C114.638 21.48 115.118 21.72 115.47 22.2C115.63 22.168 115.822 22.152 116.046 22.152C116.622 22.152 117.102 22.392 117.486 22.872C117.87 23 118.158 23.24 118.35 23.592C118.574 23.912 118.654 24.296 118.59 24.744C119.038 25.128 119.262 25.608 119.262 26.184C119.262 26.408 119.214 26.648 119.118 26.904C119.438 27.352 119.598 27.88 119.598 28.488C119.598 29.064 119.422 29.512 119.07 29.832C119.038 30.568 118.558 31.112 117.63 31.464C118.27 31.656 118.798 32.056 119.214 32.664C119.63 33.272 119.806 33.896 119.742 34.536C119.966 35.144 120.078 35.752 120.078 36.36C120.078 37.192 119.886 37.88 119.502 38.424C119.534 39.032 119.358 39.592 118.974 40.104C118.622 40.616 118.11 41.032 117.438 41.352C117.31 41.704 117.07 41.992 116.718 42.216C116.398 42.408 116.062 42.488 115.71 42.456C115.134 42.808 114.526 42.984 113.886 42.984C113.694 42.984 113.55 42.968 113.454 42.936C113.102 43.384 112.622 43.608 112.014 43.608C111.79 43.608 111.582 43.56 111.39 43.464C110.782 43.88 110.174 44.088 109.566 44.088C109.054 44.088 108.638 43.912 108.318 43.56C108.19 43.624 108.014 43.656 107.79 43.656C107.662 43.976 107.438 44.232 107.118 44.424C106.83 44.616 106.51 44.712 106.158 44.712C105.806 44.712 105.486 44.616 105.198 44.424C104.718 44.424 104.318 44.264 103.998 43.944C103.678 43.624 103.486 43.224 103.422 42.744C103.07 42.52 102.75 42.168 102.462 41.688C102.206 41.176 102.078 40.68 102.078 40.2C102.078 40.072 102.11 39.88 102.174 39.624ZM107.838 24.264C107.742 24.36 107.47 24.504 107.022 24.696C106.574 24.888 106.318 25 106.254 25.032C106.318 25.288 106.35 25.48 106.35 25.608C106.35 26.12 106.174 26.552 105.822 26.904C106.046 27.16 106.158 27.544 106.158 28.056C106.158 28.536 106.046 29.032 105.822 29.544C105.95 29.736 106.03 30.024 106.062 30.408C106.126 30.76 106.19 31.016 106.254 31.176C106.478 30.984 106.862 30.888 107.406 30.888C107.758 30.888 108.094 30.952 108.414 31.08C108.99 30.888 109.518 30.792 109.998 30.792L110.574 30.84C111.31 30.392 112.11 30.168 112.974 30.168L113.454 30.216C113.806 29.576 114.59 28.968 115.806 28.392C115.486 28.072 115.326 27.688 115.326 27.24C115.326 27.016 115.374 26.792 115.47 26.568C115.246 26.312 115.118 26.056 115.086 25.8C114.766 25.864 114.446 25.832 114.126 25.704C113.838 25.544 113.63 25.336 113.502 25.08C113.374 25.112 113.198 25.128 112.974 25.128C112.558 25.128 112.174 25.032 111.822 24.84C111.47 24.648 111.23 24.392 111.102 24.072C111.006 24.104 110.862 24.12 110.67 24.12C110.414 24.12 110.174 24.072 109.95 23.976C109.406 24.264 108.702 24.36 107.838 24.264ZM112.83 39.336C113.118 39.336 113.294 39.352 113.358 39.384C113.806 39 114.286 38.856 114.798 38.952C115.246 38.248 115.598 37.912 115.854 37.944C115.726 37.336 115.918 36.712 116.43 36.072C116.238 35.912 116.094 35.704 115.998 35.448C115.902 35.192 115.886 34.936 115.95 34.68H115.758C115.406 34.68 115.006 34.488 114.558 34.104C114.43 34.136 114.206 34.152 113.886 34.152C113.47 34.152 113.15 34.104 112.926 34.008C112.702 34.168 112.398 34.296 112.014 34.392C111.662 34.488 111.438 34.552 111.342 34.584C110.83 34.776 110.302 34.872 109.758 34.872C109.566 34.872 109.278 34.84 108.894 34.776C108.286 35.128 107.646 35.304 106.974 35.304C106.622 35.304 106.35 35.256 106.158 35.16C106.03 35.224 105.95 35.32 105.918 35.448C105.886 35.576 105.854 35.672 105.822 35.736C106.174 36.12 106.35 36.568 106.35 37.08C106.35 37.624 106.126 38.072 105.678 38.424C105.902 38.68 106.014 39.032 106.014 39.48C106.014 39.704 105.966 39.944 105.87 40.2L106.014 40.488C106.302 40.328 106.67 40.184 107.118 40.056C107.566 39.928 107.998 39.864 108.414 39.864C108.926 39.864 109.342 39.976 109.662 40.2C110.014 39.688 110.494 39.432 111.102 39.432C111.39 39.432 111.646 39.496 111.87 39.624C112.062 39.496 112.27 39.4 112.494 39.336H112.83ZM125.367 26.376C125.111 25.96 124.983 25.56 124.983 25.176C124.983 24.6 125.175 24.12 125.559 23.736C125.655 23.256 125.879 22.808 126.231 22.392C126.583 21.944 126.967 21.608 127.383 21.384C127.831 21.128 128.183 21.032 128.439 21.096C128.663 20.744 129.111 20.424 129.783 20.136C130.455 19.816 131.079 19.656 131.655 19.656C131.783 19.656 131.975 19.688 132.231 19.752C132.583 19.368 133.047 19.176 133.623 19.176C134.071 19.176 134.391 19.304 134.583 19.56C134.999 19.272 135.543 19.128 136.215 19.128C137.015 19.128 137.719 19.32 138.327 19.704C138.967 20.088 139.335 20.6 139.431 21.24C140.007 21.432 140.439 21.736 140.727 22.152C141.047 22.536 141.239 23.08 141.303 23.784C141.719 24.2 142.023 24.696 142.215 25.272C142.407 25.816 142.503 26.376 142.503 26.952C142.503 27.688 142.375 28.28 142.119 28.728C142.343 29.048 142.535 29.528 142.695 30.168C142.855 30.808 142.935 31.432 142.935 32.04C142.935 32.296 142.903 32.616 142.839 33C143.063 33.48 143.175 33.8 143.175 33.96C143.175 34.056 143.127 34.28 143.031 34.632C143.063 34.76 143.095 34.92 143.127 35.112C143.159 35.272 143.175 35.48 143.175 35.736C143.175 36.216 142.999 36.648 142.647 37.032C142.775 37.384 142.839 37.816 142.839 38.328C142.839 39 142.679 39.544 142.359 39.96C142.423 40.088 142.455 40.296 142.455 40.584C142.455 41.256 142.183 41.816 141.639 42.264C141.511 42.712 141.271 43.064 140.919 43.32C140.567 43.544 140.183 43.656 139.767 43.656C139.351 43.656 139.015 43.528 138.759 43.272C137.927 43.624 137.255 43.8 136.743 43.8C136.487 43.8 136.295 43.784 136.167 43.752C135.335 44.008 134.631 44.136 134.055 44.136C133.639 44.136 133.063 44.056 132.327 43.896C131.879 44.152 131.447 44.28 131.031 44.28C130.647 44.28 130.295 44.168 129.975 43.944C129.815 43.976 129.575 43.992 129.255 43.992C128.007 43.992 127.047 43.432 126.375 42.312C125.159 41.608 124.551 40.552 124.551 39.144C124.551 38.792 124.567 38.52 124.599 38.328C124.311 38.136 124.167 37.736 124.167 37.128C124.167 36.712 124.247 36.344 124.407 36.024C124.279 35.448 124.215 35.08 124.215 34.92C124.215 33.992 124.663 33.16 125.559 32.424C125.911 31.688 126.311 31.192 126.759 30.936C127.239 30.68 127.831 30.488 128.535 30.36C128.727 29.816 129.175 29.448 129.879 29.256C130.583 29.064 131.271 29 131.943 29.064C132.135 28.936 132.407 28.824 132.759 28.728C133.111 28.6 133.463 28.536 133.815 28.536C134.199 28.536 134.535 28.6 134.823 28.728C134.887 28.664 135.047 28.632 135.303 28.632C135.495 28.632 135.687 28.648 135.879 28.68C136.071 28.712 136.199 28.76 136.263 28.824C136.711 28.248 137.239 27.96 137.847 27.96C138.039 27.96 138.231 28.008 138.423 28.104V27.96C138.423 27.416 138.535 27.032 138.759 26.808C138.439 26.712 138.087 26.44 137.703 25.992C137.351 25.512 137.143 25.08 137.079 24.696C136.567 24.472 136.215 24.104 136.023 23.592C135.639 23.88 135.191 24.024 134.679 24.024C134.327 24.024 133.991 23.928 133.671 23.736C133.127 23.896 132.775 23.96 132.615 23.928C132.167 24.248 131.671 24.408 131.127 24.408C130.647 25.048 130.087 25.336 129.447 25.272C129.159 25.784 128.759 26.232 128.247 26.616C127.767 27 127.271 27.192 126.759 27.192C126.183 27.192 125.719 26.92 125.367 26.376ZM128.007 37.08C128.391 37.464 128.583 37.832 128.583 38.184C128.583 38.44 128.519 38.76 128.391 39.144C128.519 39.144 128.695 39.224 128.919 39.384C129.175 39.512 129.319 39.656 129.351 39.816C129.607 39.72 129.927 39.672 130.311 39.672C131.015 39.672 131.479 39.832 131.703 40.152C132.055 40.024 132.423 39.96 132.807 39.96C133.415 39.96 133.895 40.136 134.247 40.488C134.503 40.232 134.919 40.024 135.495 39.864C136.103 39.704 136.647 39.624 137.127 39.624C137.415 39.048 137.927 38.712 138.663 38.616C138.727 38.392 138.903 38.104 139.191 37.752C139.063 37.56 138.951 37.304 138.855 36.984C138.759 36.664 138.711 36.344 138.711 36.024C138.711 35.352 138.871 34.856 139.191 34.536C138.839 34.088 138.663 33.56 138.663 32.952C138.663 32.536 138.727 32.184 138.855 31.896C138.599 32.056 138.311 32.136 137.991 32.136C137.703 32.136 137.463 32.024 137.271 31.8C136.983 32.088 136.583 32.232 136.071 32.232C135.751 32.232 135.431 32.152 135.111 31.992C134.759 32.344 134.327 32.52 133.815 32.52C133.655 32.52 133.415 32.456 133.095 32.328C132.615 32.808 132.183 32.952 131.799 32.76C131.607 33.208 131.351 33.512 131.031 33.672C130.743 33.832 130.327 33.912 129.783 33.912C129.655 34.264 129.431 34.552 129.111 34.776C128.823 35 128.519 35.08 128.199 35.016C128.359 35.24 128.439 35.496 128.439 35.784C128.439 36.264 128.295 36.696 128.007 37.08ZM150.511 43.224C150.511 43.864 150.335 44.344 149.983 44.664C149.663 44.952 149.247 45.096 148.735 45.096C148.351 45.096 147.983 45 147.631 44.808C147.279 44.616 147.071 44.376 147.007 44.088C146.559 43.992 146.191 43.768 145.903 43.416C145.615 43.064 145.471 42.664 145.471 42.216C145.471 41.96 145.551 41.672 145.711 41.352C145.423 40.808 145.279 40.248 145.279 39.672C145.279 39.256 145.343 38.872 145.471 38.52C145.631 38.136 145.823 37.848 146.047 37.656C145.759 37.176 145.615 36.616 145.615 35.976C145.615 35.304 145.759 34.712 146.047 34.2C145.919 33.976 145.855 33.72 145.855 33.432C145.855 32.984 145.999 32.6 146.287 32.28C146.127 31.864 146.047 31.384 146.047 30.84C146.047 30.488 146.095 30.2 146.191 29.976C145.999 29.688 145.903 29.336 145.903 28.92C145.903 28.472 145.999 27.992 146.191 27.48C145.903 27.128 145.759 26.728 145.759 26.28C145.759 25.896 145.887 25.528 146.143 25.176C146.047 24.984 145.999 24.776 145.999 24.552C145.999 24.168 146.127 23.816 146.383 23.496C146.223 23.112 146.143 22.68 146.143 22.2C146.143 21.4 146.319 20.696 146.671 20.088C147.023 19.448 147.519 19.128 148.159 19.128C148.351 19.128 148.591 19.176 148.879 19.272C149.743 19.592 150.175 20.168 150.175 21C150.175 21.352 150.111 21.672 149.983 21.96C150.271 22.312 150.415 22.744 150.415 23.256C150.415 23.672 150.303 24.088 150.079 24.504C150.271 24.792 150.367 25.096 150.367 25.416C150.367 25.832 150.239 26.216 149.983 26.568C150.111 27.016 150.175 27.352 150.175 27.576C150.175 28.056 150.031 28.392 149.743 28.584C150.063 29 150.223 29.432 150.223 29.88C150.223 30.296 150.079 30.68 149.791 31.032C149.951 31.448 150.031 31.928 150.031 32.472C150.031 32.76 149.983 33.032 149.887 33.288C150.047 33.512 150.127 33.832 150.127 34.248C150.127 34.824 149.951 35.288 149.599 35.64C149.727 36.248 149.791 37.016 149.791 37.944C149.951 37.784 150.079 37.688 150.175 37.656C150.335 37.112 150.671 36.696 151.183 36.408C151.247 35.8 151.535 35.336 152.047 35.016C152.047 34.376 152.351 33.864 152.959 33.48C152.991 32.904 153.183 32.44 153.535 32.088C153.919 31.704 154.351 31.512 154.831 31.512C154.799 31.416 154.783 31.272 154.783 31.08C154.783 30.632 154.895 30.216 155.119 29.832C155.375 29.416 155.711 29.112 156.127 28.92C156.191 28.504 156.367 28.168 156.655 27.912C156.975 27.656 157.327 27.496 157.711 27.432C157.615 26.984 157.727 26.504 158.047 25.992C158.367 25.48 158.735 25.112 159.151 24.888C159.183 24.152 159.375 23.576 159.727 23.16C160.111 22.712 160.639 22.456 161.311 22.392C161.215 22.136 161.167 21.896 161.167 21.672C161.167 21.16 161.359 20.76 161.743 20.472C162.159 20.184 162.639 20.04 163.183 20.04C163.727 20.04 164.191 20.2 164.575 20.52C164.991 20.84 165.215 21.288 165.247 21.864C165.375 22.088 165.439 22.376 165.439 22.728C165.439 23.144 165.327 23.48 165.103 23.736C165.199 23.96 165.247 24.2 165.247 24.456C165.247 24.808 165.103 25.384 164.815 26.184C164.975 26.504 165.055 26.808 165.055 27.096C165.055 27.48 164.927 27.848 164.671 28.2C165.055 28.52 165.247 29.016 165.247 29.688C165.247 30.072 165.167 30.472 165.007 30.888C164.847 31.304 164.623 31.656 164.335 31.944C164.559 32.104 164.735 32.36 164.863 32.712C165.023 33.032 165.103 33.4 165.103 33.816C165.103 34.552 164.879 35.128 164.431 35.544C164.463 35.64 164.479 35.784 164.479 35.976C164.479 36.328 164.415 36.616 164.287 36.84C164.447 37.064 164.527 37.496 164.527 38.136C164.527 38.68 164.463 39.096 164.335 39.384C164.559 39.64 164.671 39.992 164.671 40.44C164.671 41.016 164.463 41.464 164.047 41.784C164.335 42.072 164.575 42.456 164.767 42.936C164.991 43.384 165.103 43.832 165.103 44.28C165.103 44.472 165.039 44.728 164.911 45.048C164.783 45.368 164.559 45.624 164.239 45.816C163.919 46.008 163.583 46.104 163.231 46.104C162.751 46.104 162.367 45.976 162.079 45.72C161.663 45.56 161.343 45.288 161.119 44.904C160.927 44.488 160.863 44.072 160.927 43.656C160.703 43.4 160.527 43.08 160.399 42.696C160.271 42.28 160.207 41.88 160.207 41.496C160.207 40.984 160.303 40.584 160.495 40.296C160.335 40.008 160.255 39.704 160.255 39.384C160.255 39 160.447 38.584 160.831 38.136C160.607 37.752 160.495 37.304 160.495 36.792C160.495 36.312 160.575 35.992 160.735 35.832C160.607 35.704 160.543 35.496 160.543 35.208C160.543 34.792 160.719 34.36 161.071 33.912C160.847 33.272 160.735 32.664 160.735 32.088C160.735 31.32 160.943 30.568 161.359 29.832L161.119 29.352C160.447 30.088 159.887 30.52 159.439 30.648C159.311 31.096 159.023 31.464 158.575 31.752C158.479 32.872 157.903 33.832 156.847 34.632C156.879 35.048 156.767 35.448 156.511 35.832C156.255 36.184 155.903 36.424 155.455 36.552C155.359 36.968 155.103 37.304 154.687 37.56C154.687 38.392 154.335 38.952 153.631 39.24C153.535 39.784 153.359 40.168 153.103 40.392C152.847 40.616 152.479 40.776 151.999 40.872C151.903 41.448 151.743 41.912 151.519 42.264C151.327 42.616 150.991 42.936 150.511 43.224ZM152.671 15.192C152.223 15 151.791 14.696 151.375 14.28C150.991 13.864 150.815 13.368 150.847 12.792C150.687 12.472 150.607 12.216 150.607 12.024C150.607 11.64 150.767 11.32 151.087 11.064C151.407 10.808 151.775 10.68 152.191 10.68C152.575 10.68 152.895 10.792 153.151 11.016C153.407 11.24 153.535 11.576 153.535 12.024C153.951 12.248 154.255 12.456 154.447 12.648C154.671 12.84 154.831 13.08 154.927 13.368C155.119 13.304 155.295 13.272 155.455 13.272C155.711 13.272 155.983 13.32 156.271 13.416C156.559 13.512 156.767 13.624 156.895 13.752C157.471 13.272 158.239 13.016 159.199 12.984C159.135 12.664 159.167 12.36 159.295 12.072C159.455 11.784 159.695 11.576 160.015 11.448C160.047 11.064 160.191 10.76 160.447 10.536C160.735 10.28 161.071 10.152 161.455 10.152C161.871 10.152 162.223 10.296 162.511 10.584C162.735 10.84 162.847 11.192 162.847 11.64C162.847 12.408 162.623 12.984 162.175 13.368C162.239 13.624 162.111 13.96 161.791 14.376C161.503 14.76 161.103 15.112 160.591 15.432C160.079 15.752 159.567 15.928 159.055 15.96C158.895 16.12 158.607 16.28 158.191 16.44C157.775 16.568 157.375 16.632 156.991 16.632C156.575 16.632 156.287 16.552 156.127 16.392C155.935 16.52 155.647 16.584 155.263 16.584C154.783 16.584 154.415 16.488 154.159 16.296C153.839 16.36 153.535 16.296 153.247 16.104C152.991 15.88 152.799 15.576 152.671 15.192Z" fill="#EE9B01"/>
</svg>
