<svg width="25" height="25" viewBox="0 0 25 25" fill="none" xmlns="http://www.w3.org/2000/svg">
<g clip-path="url(#clip0_2_32)">
<path d="M12.5 25C19.4036 25 25 19.4036 25 12.5C25 5.59644 19.4036 0 12.5 0C5.59644 0 0 5.59644 0 12.5C0 19.4036 5.59644 25 12.5 25Z" fill="white"/>
<path fill-rule="evenodd" clip-rule="evenodd" d="M12.5 25C5.59644 25 0 19.4036 0 12.5C0 5.59644 5.59644 0 12.5 0C19.4036 0 25 5.59644 25 12.5C25 19.4036 19.4036 25 12.5 25ZM14.5146 7.43154L5.42793 10.6593C5.42793 10.6593 3.40347 11.7989 6.28066 13.1327C7.79541 13.8349 9.25093 14.4627 9.25093 14.4627L10.8874 17.7366C10.8874 17.7366 12.1325 20.7959 13.4854 17.376C14.4299 14.9884 15.522 11.6868 16.3513 9.37002C17.6074 5.86084 14.5146 7.43154 14.5146 7.43154Z" fill="#00A3FF"/>
<path opacity="0.1" fill-rule="evenodd" clip-rule="evenodd" d="M21.3378 3.66272C26.2187 8.54358 26.2187 16.457 21.3378 21.3379C16.457 26.2187 8.54355 26.2187 3.66269 21.3379" fill="#00A3FF"/>
</g>
<defs>
<clipPath id="clip0_2_32">
<rect width="25" height="25" fill="white"/>
</clipPath>
</defs>
</svg>
