<svg width="25" height="25" viewBox="0 0 25 25" fill="none" xmlns="http://www.w3.org/2000/svg">
<path fill-rule="evenodd" clip-rule="evenodd" d="M20.4523 4.72459C18.4018 2.67099 15.6739 1.5399 12.7679 1.53857C6.77996 1.53857 1.90678 6.41131 1.90413 12.401C1.90176 14.3074 2.40202 16.1807 3.35449 17.832L1.81329 23.4615L7.57238 21.9507C9.16509 22.8183 10.9498 23.273 12.7635 23.2732H12.7679C18.755 23.2732 23.629 18.3996 23.6312 12.4098C23.6321 9.50737 22.5032 6.77776 20.4523 4.72459ZM12.7679 21.4383H12.7639C11.147 21.4385 9.55979 21.0038 8.16858 20.1798L7.83873 19.984L4.4212 20.8805L5.33401 17.5489L5.11882 17.2072C4.21454 15.7677 3.73602 14.1018 3.73857 12.4019C3.74034 7.42334 7.7911 3.37346 12.7714 3.37346C13.9577 3.37068 15.1328 3.6033 16.2285 4.05784C17.3243 4.51238 18.319 5.17982 19.1549 6.02149C19.9957 6.85869 20.662 7.85429 21.1155 8.95068C21.569 10.0471 21.8005 11.2225 21.7968 12.409C21.795 17.3875 17.7443 21.4383 12.7679 21.4383Z" fill="#0BA508"/>
<path fill-rule="evenodd" clip-rule="evenodd" d="M17.7204 14.676C17.4492 14.5402 16.1144 13.8836 15.8657 13.7927C15.617 13.7023 15.4358 13.6569 15.255 13.9285C15.0742 14.2006 14.5538 14.8118 14.3955 14.993C14.2372 15.1738 14.0789 15.1968 13.8073 15.061C13.5361 14.9251 12.6612 14.6385 11.6244 13.7138C10.8175 12.9941 10.2729 12.1051 10.1146 11.8335C9.95581 11.5614 10.0978 11.4146 10.2336 11.2792C10.3558 11.1575 10.5048 10.9621 10.6406 10.8038C10.7765 10.6451 10.8214 10.5322 10.9123 10.3509C11.0027 10.1701 10.9573 10.0114 10.8893 9.87557C10.8219 9.73975 10.279 8.40361 10.0528 7.86033C9.83234 7.33116 9.60832 7.4026 9.44208 7.39422C9.28377 7.38629 9.10253 7.38452 8.92173 7.38452C8.74093 7.38452 8.4468 7.45243 8.19766 7.72407C7.94895 7.99571 7.2478 8.65276 7.2478 9.98846C7.2478 11.3246 8.22059 12.6153 8.35596 12.7966C8.49178 12.9774 10.2702 15.7193 12.9932 16.895C13.4986 17.1128 14.0151 17.3037 14.5406 17.4669C15.1906 17.6737 15.7824 17.6442 16.2502 17.5745C16.7719 17.4964 17.8563 16.9174 18.0825 16.2838C18.3087 15.6497 18.3087 15.1064 18.2408 14.993C18.1729 14.8797 17.9921 14.8122 17.7204 14.676Z" fill="#0BA508"/>
</svg>
